<svg xmlns="http://www.w3.org/2000/svg" width="256" height="256" viewBox="0 0 256 256">
  <defs>
    <linearGradient id="g" x1="0" x2="1" y1="0" y2="1">
      <stop offset="0%" stop-color="#3b82f6"/>
      <stop offset="100%" stop-color="#8b5cf6"/>
    </linearGradient>
    <filter id="shadow" x="-20%" y="-20%" width="140%" height="140%">
      <feDropShadow dx="0" dy="2" stdDeviation="3" flood-color="rgba(0,0,0,0.25)"/>
    </filter>
  </defs>
  <rect x="16" y="16" width="224" height="224" rx="24" fill="url(#g)"/>
  <g filter="url(#shadow)">
    <!-- Graph nodes -->
    <circle cx="74" cy="96" r="14" fill="#ffffff"/>
    <circle cx="182" cy="80" r="14" fill="#ffffff"/>
    <circle cx="144" cy="168" r="14" fill="#ffffff"/>
    <circle cx="76" cy="176" r="10" fill="#ffffff"/>
    <!-- Edges -->
    <path d="M 74 96 L 182 80" stroke="#ffffff" stroke-width="6" stroke-linecap="round" opacity="0.9"/>
    <path d="M 182 80 L 144 168" stroke="#ffffff" stroke-width="6" stroke-linecap="round" opacity="0.9"/>
    <path d="M 74 96 L 144 168" stroke="#ffffff" stroke-width="6" stroke-linecap="round" opacity="0.7"/>
    <path d="M 74 96 L 76 176" stroke="#ffffff" stroke-width="6" stroke-linecap="round" opacity="0.6"/>
  </g>
  <!-- JSON braces -->
  <path d="M40 120c0-22 10-34 30-38v16c-9 3-14 11-14 22v28c0 11 5 19 14 22v16c-20-4-30-16-30-38zM216 120c0-22-10-34-30-38v16c9 3 14 11 14 22v28c0 11-5 19-14 22v16c20-4 30-16 30-38z" fill="#ffffff" opacity="0.85"/>
</svg>

